<?xml version="1.0" standalone="no"?>
<!DOCTYPE svg PUBLIC "-//W3C//DTD SVG 20010904//EN"
 "http://www.w3.org/TR/2001/REC-SVG-20010904/DTD/svg10.dtd">
<svg version="1.0" xmlns="http://www.w3.org/2000/svg"
 width="500.000000pt" height="500.000000pt" viewBox="0 0 500.000000 500.000000"
 preserveAspectRatio="xMidYMid meet">
<metadata>
Created by potrace 1.14, written by Peter Selinger 2001-2017
</metadata>
<g transform="translate(0.000000,500.000000) scale(0.100000,-0.100000)"
fill="#000000" stroke="none">
<path d="M3790 3654 c-341 -62 -616 -279 -730 -577 -44 -113 -60 -195 -60
-313 0 -262 93 -481 280 -658 118 -111 249 -184 410 -227 124 -34 349 -34 470
-1 183 50 324 135 456 274 457 485 224 1278 -433 1474 -73 22 -112 27 -228 29
-77 2 -151 1 -165 -1z m305 -533 c84 -42 149 -106 186 -185 120 -256 -17 -531
-289 -578 -176 -30 -349 60 -426 222 -29 60 -31 73 -31 175 0 101 2 115 29
170 34 69 123 162 181 190 117 55 245 57 350 6z"/>
<path d="M270 3633 c-41 -15 -40 12 -40 -1214 l0 -1178 22 -15 c19 -13 59 -16
239 -16 199 0 219 2 240 19 l24 19 5 585 5 584 278 -537 c153 -296 287 -546
298 -556 19 -17 42 -19 211 -22 134 -2 200 0 220 9 26 11 62 76 296 543 l267
531 5 -573 c5 -553 6 -574 24 -588 16 -11 65 -14 237 -14 204 0 218 1 243 21
l26 20 0 1169 c0 1135 -1 1168 -19 1191 -19 24 -22 24 -238 27 -194 2 -221 1
-246 -15 -23 -15 -96 -163 -409 -833 -209 -448 -383 -818 -387 -822 -4 -5
-186 358 -405 805 -260 529 -409 822 -428 840 l-28 27 -213 -1 c-116 0 -219
-3 -227 -6z"/>
<path d="M3112 1694 c-22 -15 -22 -19 -22 -230 0 -201 1 -215 20 -234 20 -20
33 -20 808 -20 779 0 788 0 810 20 21 20 22 28 22 230 0 197 -1 211 -20 230
-20 20 -33 20 -808 20 -697 0 -790 -2 -810 -16z"/>
</g>
</svg>
